<?xml version="1.0" encoding="UTF-8" standalone="no"?>
<!DOCTYPE svg PUBLIC "-//W3C//DTD SVG 1.1//EN" "http://www.w3.org/Graphics/SVG/1.1/DTD/svg11.dtd">
<svg width="100%" height="100%" viewBox="0 0 216 216" version="1.1" xmlns="http://www.w3.org/2000/svg" xmlns:xlink="http://www.w3.org/1999/xlink" xml:space="preserve" xmlns:serif="http://www.serif.com/" style="fill-rule:evenodd;clip-rule:evenodd;stroke-linejoin:round;stroke-miterlimit:2;">
    <g transform="matrix(1,0,0,1,-2642.909595,-18.030867)">
        <g id="Artboard5" transform="matrix(0.860362,0,0,0.863823,378.944106,18.030867)">
            <rect x="2631.411" y="0" width="250" height="250" style="fill:none;"/>
            <clipPath id="_clip1">
                <rect x="2631.411" y="0" width="250" height="250"/>
            </clipPath>
            <g clip-path="url(#_clip1)">
                <g transform="matrix(1.440204,0,0,1.434433,-1237.675178,-36.332701)">
                    <path d="M2685.673,148.332L2685.673,25.234L2860.128,25.234L2860.128,199.688L2737.029,199.688L2685.673,148.332Z" style="fill:rgb(255,254,128);"/>
                    <path d="M2685.673,148.332L2685.673,25.234L2860.128,25.234L2860.128,199.688L2737.029,199.688L2685.673,148.332ZM2690.273,146.427L2738.935,195.088L2855.528,195.088L2855.528,29.834L2690.273,29.834L2690.273,146.427Z"/>
                </g>
                <g transform="matrix(-1.440204,-0,0,-1.434433,6572.121115,462.879655)">
                    <path d="M2685.673,148.332L2737.029,199.688L2685.673,199.688L2685.673,148.332Z" style="fill:rgb(255,254,128);"/>
                    <path d="M2685.673,148.332L2737.029,199.688L2685.673,199.688L2685.673,148.332ZM2690.273,159.438L2690.273,195.088L2725.924,195.088L2690.273,159.438Z"/>
                </g>
            </g>
        </g>
    </g>
</svg>
