<?xml version="1.0" encoding="UTF-8" standalone="no"?>
<!DOCTYPE svg PUBLIC "-//W3C//DTD SVG 1.1//EN" "http://www.w3.org/Graphics/SVG/1.1/DTD/svg11.dtd">
<svg width="100%" height="100%" viewBox="0 0 216 216" version="1.1" xmlns="http://www.w3.org/2000/svg" xmlns:xlink="http://www.w3.org/1999/xlink" xml:space="preserve" xmlns:serif="http://www.serif.com/" style="fill-rule:evenodd;clip-rule:evenodd;stroke-linejoin:round;stroke-miterlimit:2;">
    <g transform="matrix(1,0,0,1,-2177.789321,-234.079139)">
        <g id="Theif" transform="matrix(0.860362,0,0,0.863823,-86.176168,234.079139)">
            <rect x="2631.411" y="0" width="250" height="250" style="fill:none;"/>
            <g transform="matrix(1.162302,0,0,1.157645,100.826428,-243.629775)">
                <ellipse cx="2284.764" cy="337.178" rx="98.459" ry="38.467" style="fill:rgb(37,37,37);"/>
                <path d="M2284.764,298.711C2339.105,298.711 2383.223,315.948 2383.223,337.178C2383.223,358.409 2339.105,375.646 2284.764,375.646C2230.422,375.646 2186.304,358.409 2186.304,337.178C2186.304,315.948 2230.422,298.711 2284.764,298.711ZM2284.764,304.411C2253.27,304.411 2225.304,310.272 2207.992,319.497C2202.742,322.294 2198.527,325.366 2195.664,328.724C2193.382,331.401 2192.004,334.204 2192.004,337.178C2192.004,340.153 2193.382,342.956 2195.664,345.633C2198.527,348.99 2202.742,352.063 2207.992,354.86C2225.304,364.085 2253.27,369.946 2284.764,369.946C2316.257,369.946 2344.223,364.085 2361.535,354.86C2366.785,352.063 2371,348.99 2373.863,345.633C2376.145,342.956 2377.523,340.153 2377.523,337.178C2377.523,334.204 2376.145,331.401 2373.863,328.724C2371,325.366 2366.785,322.294 2361.535,319.497C2344.223,310.272 2316.257,304.411 2284.764,304.411Z"/>
            </g>
            <g transform="matrix(1.162302,0,0,1.157645,85.169691,-280.926776)">
                <circle cx="2298.234" cy="350.649" r="39.995" style="fill:rgb(37,37,37);"/>
                <path d="M2298.234,310.654C2320.308,310.654 2338.229,328.575 2338.229,350.649C2338.229,372.723 2320.308,390.644 2298.234,390.644C2276.16,390.644 2258.239,372.723 2258.239,350.649C2258.239,328.575 2276.16,310.654 2298.234,310.654ZM2298.234,316.354C2279.306,316.354 2263.939,331.721 2263.939,350.649C2263.939,369.577 2279.306,384.944 2298.234,384.944C2317.162,384.944 2332.529,369.577 2332.529,350.649C2332.529,331.721 2317.162,316.354 2298.234,316.354Z"/>
            </g>
            <g transform="matrix(1.157044,0,0,1.157645,108.586111,-271.924051)">
                <ellipse cx="2288.096" cy="323.152" rx="26.524" ry="14.165" style="fill:rgb(217,167,161);"/>
            </g>
            <g transform="matrix(0.68395,0,0,0.377739,1217.796291,-10.401639)">
                <ellipse cx="2229.172" cy="293.925" rx="8.621" ry="8.137"/>
            </g>
            <g transform="matrix(0.68395,0,0,0.377739,1244.982112,-10.401639)">
                <ellipse cx="2229.172" cy="293.925" rx="8.621" ry="8.137"/>
            </g>
        </g>
    </g>
</svg>
